<svg viewBox="0 0 98 38" fill="none" xmlns="http://www.w3.org/2000/svg">
<path d="M6.99328 27.8804C5.66815 27.2519 4.58239 26.7456 4.58239 25.7069C4.58239 24.9213 5.20649 24.3452 6.42048 24.3452C6.82233 24.3472 7.22308 24.3882 7.61738 24.4674C7.81191 24.5064 8.00915 24.5297 8.20727 24.5372C9.27593 24.5372 9.91712 23.8912 10.2762 22.6517L10.4386 22.1542C9.1134 21.5902 7.69371 21.2938 6.25805 21.2812C2.64172 21.2812 0.735235 23.6468 0.735235 26.1084C0.694174 27.1516 1.04251 28.1718 1.70985 28.9628C2.52407 29.8303 3.5049 30.5167 4.59094 30.9792C6.07851 31.7299 7.42074 32.2799 7.42074 33.3797C7.42074 34.4796 6.42903 34.9248 5.12955 34.9248C3.8334 34.8617 2.57676 34.4491 1.48757 33.7289L0 36.592C1.62697 37.553 3.48123 38.0392 5.36038 37.9974C8.78007 37.9974 11.285 36.0159 11.285 32.9782C11.285 29.9405 8.90831 28.8319 6.99328 27.8804Z" fill="#EA002C"/>
<path d="M20.1943 29.295L26.3156 21.6309H21.9469L17.0995 28.2475H17.0311V21.6309H13.4404V37.8669H13.6542C15.2016 37.8669 17.0739 37.1337 17.0739 34.48V30.7527H17.0995L22.0752 37.6662H26.649L20.1943 29.295Z" fill="#EA002C"/>
<path d="M26.5028 4.25098C25.2376 4.49539 23.3653 5.66509 23.3738 7.7426C23.3738 9.62808 24.887 10.7716 24.887 13.2419C24.8961 14.005 24.7091 14.7573 24.3446 15.4235C23.98 16.0898 23.4508 16.6468 22.8096 17.0391C23.2456 17.0391 23.7243 16.978 24.2544 16.9692C24.8633 16.9606 25.472 16.9985 26.0754 17.0827L31.7521 9.96852C30.3204 7.78234 28.5471 5.85083 26.5028 4.25098V4.25098Z" fill="#EA002C"/>
<path d="M31.2813 23.4551C31.9995 22.3203 32.085 20.5134 32.1363 18.6628C32.1961 16.917 32.5466 15.6513 34.8036 15.6426C35.2995 15.6426 35.7782 15.7124 36.6417 15.7124C39.0365 15.7008 41.3841 15.0315 43.4384 13.7746C39.9384 11.4705 35.903 10.1543 31.743 9.95996C31.4181 10.894 28.9046 18.0343 28.708 18.6105C29.1 19.0795 29.4438 19.5885 29.7339 20.1293C30.3638 21.1787 30.8826 22.2936 31.2813 23.4551V23.4551Z" fill="#EA002C"/>
<path d="M19.2958 17.6241C19.0051 17.6241 18.8598 17.4321 18.8256 17.0917C18.7914 16.7512 17.3637 3.5005 17.1585 1.49281C17.1585 1.19602 17.0559 0.619905 17.0559 0.47151C17.0498 0.411042 17.0564 0.349942 17.0753 0.292282C17.0941 0.234623 17.1248 0.181729 17.1652 0.137125C17.2057 0.0925217 17.255 0.0572335 17.3098 0.0336128C17.3647 0.009992 17.4239 -0.00141905 17.4834 0.000140866C20.4642 0.55599 23.2789 1.80772 25.7078 3.65762C24.8329 3.88118 24.0533 4.38989 23.4871 5.10661C22.9209 5.82333 22.599 6.709 22.5702 7.62935C22.5702 9.81161 24.109 11.0162 24.1176 13.2072C24.1261 16.7599 20.1251 17.6241 19.2958 17.6241Z" fill="#FF7A00"/>
<path d="M31.6318 24.407C31.7002 24.5641 31.7515 24.7038 31.8114 24.8085C31.8444 24.8743 31.8947 24.9295 31.9565 24.968C32.0184 25.0065 32.0894 25.0268 32.1619 25.0267C32.275 25.0216 32.3858 24.9918 32.4868 24.9394L46.4306 18.3228C46.687 18.1919 47.1744 17.9736 47.3368 17.8776C47.4084 17.8427 47.4694 17.7885 47.5131 17.7208C47.5568 17.6531 47.5816 17.5745 47.5847 17.4935C47.583 17.4074 47.5595 17.3232 47.5163 17.2491C46.5721 16.096 45.4623 15.0954 44.2249 14.2812C41.9765 15.6864 39.3974 16.4436 36.7614 16.4722C35.9065 16.4722 35.7013 16.4199 35.1114 16.4199C33.4015 16.4199 32.9484 17.1793 32.8886 18.7243C32.8886 19.0211 32.8886 19.4139 32.8886 19.8417C32.8031 21.2209 32.6406 23.1238 31.6318 24.407Z" fill="#FF7A00"/>
<path d="M38.1554 37.832C37.0365 37.8595 35.9312 37.5759 34.958 37.0115L35.6676 35.3704C36.3501 35.8614 37.1585 36.1375 37.993 36.1647C38.8907 36.1647 39.4635 35.7807 39.4635 35.1871C39.4635 34.5935 38.4717 34.1745 37.7536 33.8777C36.6935 33.4413 35.4966 32.8739 35.4966 31.259C35.4966 29.6441 36.6935 28.6403 38.7624 28.6403C39.6927 28.6274 40.6155 28.8117 41.4725 29.1815C41.4725 29.1815 41.387 29.4434 41.3614 29.5394C41.2759 29.8449 41.0536 30.6043 40.344 30.6043C39.8396 30.6043 39.4891 30.3512 38.7453 30.3512C38.0015 30.3512 37.6168 30.6567 37.6168 31.1106C37.6168 31.5645 38.3863 31.9835 39.2497 32.3152C40.1132 32.6469 41.6606 33.45 41.6606 35.0649C41.6521 37.0638 40.0106 37.832 38.1554 37.832Z" fill="#FF7A00"/>
<path d="M94.4953 37.832C93.3763 37.8595 92.2711 37.5759 91.2979 37.0115L92.0074 35.3704C92.69 35.8614 93.4984 36.1375 94.3328 36.1647C95.1877 36.1647 95.8033 35.7807 95.8033 35.1871C95.8033 34.5935 94.8116 34.1745 94.0934 33.8777C93.0333 33.4413 91.8365 32.8739 91.8365 31.259C91.8365 29.6441 93.0333 28.6403 95.1023 28.6403C96.0326 28.6274 96.9554 28.8117 97.8124 29.1815C97.8124 29.1815 97.7269 29.4434 97.7012 29.5394C97.6157 29.8449 97.3934 30.6043 96.6839 30.6043C96.1795 30.6043 95.8289 30.3512 95.0852 30.3512C94.3414 30.3512 93.9481 30.6567 93.9481 31.1368C93.9481 31.6169 94.7261 32.0097 95.5896 32.3414C96.453 32.6731 98.0004 33.4762 98.0004 35.0911C97.9919 37.0638 96.3504 37.832 94.4953 37.832Z" fill="#FF7A00"/>
<path d="M89.4683 34.7761V28.8142H87.2712V35.0729C86.7764 35.5535 86.1317 35.8409 85.4502 35.8847C84.4585 35.8847 83.7916 35.2562 83.7916 34.008V28.7705H81.603V34.5142C81.5692 34.9534 81.6281 35.3948 81.7756 35.8088C81.923 36.2227 82.1557 36.5996 82.4579 36.9139C82.7601 37.2283 83.1248 37.4728 83.5275 37.6311C83.9301 37.7893 84.3612 37.8576 84.7919 37.8313C85.7823 37.7925 86.7221 37.375 87.4251 36.6616C87.5293 36.9716 87.7328 37.2366 88.0027 37.414C88.2726 37.5914 88.5931 37.6707 88.9126 37.6392C89.2006 37.6302 89.4869 37.5922 89.7675 37.5258C89.5698 36.6231 89.4694 35.7011 89.4683 34.7761V34.7761Z" fill="#FF7A00"/>
<path d="M59.7076 32.2711C59.6816 31.7932 59.8396 31.3239 60.1479 30.9635C60.4563 30.603 60.8904 30.3799 61.3576 30.3419C61.5954 30.3496 61.8292 30.4061 62.0451 30.5081C62.2609 30.6101 62.4545 30.7554 62.6141 30.9355C62.7737 31.1156 62.8961 31.3267 62.974 31.5561C63.0519 31.7856 63.0837 32.0288 63.0675 32.2711H59.7076ZM61.4175 28.6572C59.3144 28.6572 57.5361 30.403 57.5361 33.2574C57.5361 36.1119 59.246 37.8315 61.8108 37.8315C62.9647 37.8733 64.1002 37.5267 65.0424 36.8451C65.0424 36.8451 64.8372 36.5134 64.7859 36.4174C64.698 36.2288 64.5601 36.0691 64.3878 35.9564C64.2156 35.8438 64.0158 35.7827 63.8113 35.7801C63.0846 35.7801 62.9564 36.0944 62.0159 36.0944C61.7202 36.1073 61.4249 36.0595 61.1476 35.9538C60.8703 35.8481 60.6165 35.6868 60.4013 35.4793C60.1861 35.2717 60.0138 35.0223 59.8947 34.7456C59.7755 34.4689 59.7119 34.1707 59.7076 33.8685H65.3416V33.1963C65.3416 30.4641 63.7942 28.6572 61.4004 28.6572" fill="#FF7A00"/>
<path d="M55.9543 26.1346C55.9628 26.4073 55.8914 26.6764 55.7492 26.9075C55.6069 27.1385 55.4004 27.3209 55.156 27.4314C54.9116 27.5418 54.6405 27.5753 54.3774 27.5274C54.1143 27.4796 53.8711 27.3526 53.6791 27.1628C53.4871 26.973 53.355 26.729 53.2996 26.462C53.2443 26.1951 53.2682 25.9173 53.3684 25.6643C53.4687 25.4114 53.6405 25.1947 53.8621 25.0421C54.0837 24.8895 54.3448 24.8079 54.6121 24.8077C54.9621 24.8031 55.2997 24.94 55.5511 25.1886C55.8026 25.4371 55.9475 25.7772 55.9543 26.1346V26.1346Z" fill="#FF7A00"/>
<path d="M55.6903 28.8145H53.5273V37.6308H55.6903V28.8145Z" fill="#FF7A00"/>
<path d="M69.2493 35.1609V26.0128C69.2609 25.7763 69.2253 25.5399 69.1446 25.3179C69.0638 25.0959 68.9397 24.893 68.7798 24.7215C68.6198 24.55 68.4274 24.4136 68.2142 24.3204C68.0009 24.2273 67.7714 24.1794 67.5395 24.1797H67.0693V36.0599C67.0579 36.3021 67.0982 36.544 67.1873 36.7687C67.2763 36.9935 67.4121 37.1959 67.5852 37.3618C67.7584 37.5278 67.9647 37.6535 68.19 37.7301C68.4153 37.8067 68.6542 37.8326 68.8903 37.8058C69.1493 37.8302 69.4103 37.7939 69.6536 37.6998C69.8968 37.6057 70.1158 37.4561 70.2939 37.2625C70.472 37.0689 70.6044 36.8363 70.6812 36.5826C70.758 36.3288 70.777 36.0605 70.7369 35.7981C70.5305 35.8965 70.3063 35.95 70.0786 35.9552C69.9708 35.9697 69.8611 35.9595 69.7576 35.9255C69.6541 35.8914 69.5592 35.8344 69.4799 35.7584C69.4006 35.6824 69.3387 35.5894 69.2989 35.4861C69.259 35.3827 69.2421 35.2717 69.2493 35.1609V35.1609Z" fill="#FF7A00"/>
<path d="M45.8932 29.8188C46.6714 29.0918 47.6775 28.6711 48.7316 28.6317C50.4414 28.6317 51.6725 29.5046 51.6725 31.7218V37.6226H49.3813V32.3852C49.4094 32.1661 49.3912 31.9434 49.3279 31.7321C49.2645 31.5208 49.1575 31.3259 49.0141 31.1604C48.8707 30.9949 48.6942 30.8628 48.4965 30.7729C48.2988 30.683 48.0845 30.6375 47.8681 30.6394C47.1231 30.7185 46.4267 31.054 45.8932 31.5908V37.6314H43.6533V24.1711H44.1235C44.3627 24.162 44.6011 24.2043 44.8233 24.2953C45.0454 24.3862 45.2464 24.5238 45.4133 24.699C45.5801 24.8743 45.709 25.0833 45.7917 25.3127C45.8743 25.542 45.9089 25.7866 45.8932 26.0304V29.8188Z" fill="#FF7A00"/>
<path d="M76.4649 30.3682C76.8276 30.3703 77.189 30.4142 77.5421 30.4991V35.85C77.1902 35.9426 76.8283 35.9895 76.4649 35.9897C76.1075 36.006 75.7508 35.9429 75.4196 35.8047C75.0884 35.6665 74.7906 35.4565 74.5467 35.1892C74.3028 34.9219 74.1186 34.6037 74.007 34.2566C73.8954 33.9095 73.8589 33.5418 73.9001 33.1789C73.9429 31.3458 75.003 30.3682 76.4649 30.3682ZM76.1828 37.8315C77.3977 37.832 78.6056 37.6436 79.7649 37.2729V24.1793H79.4144C79.1527 24.1728 78.8926 24.2234 78.6516 24.3278C78.4106 24.4322 78.1943 24.588 78.017 24.7847C77.8397 24.9814 77.7057 25.2145 77.6238 25.4683C77.5419 25.7222 77.514 25.991 77.5421 26.2568V28.7184C77.0491 28.5776 76.5407 28.5013 76.0289 28.4914C73.6351 28.4914 71.5576 30.0103 71.5576 33.2226C71.5576 35.9286 73.2675 37.8141 76.1828 37.8141" fill="#FF7A00"/>
</svg>
