<svg viewBox="0 0 134 21" fill="none" xmlns="http://www.w3.org/2000/svg">
<path d="M9.31821 18.387C7.78501 18.387 6.51251 18.1687 5.50031 17.7317C4.48861 17.2947 3.72151 16.7234 3.20051 16.0178C2.67901 15.3127 2.40311 14.5613 2.37241 13.7639C2.37241 13.6413 2.42221 13.5305 2.52181 13.4304C2.62141 13.3308 2.74061 13.281 2.87821 13.281H5.77611C5.99091 13.281 6.15601 13.3196 6.27071 13.3957C6.38591 13.4728 6.48951 13.5725 6.58121 13.695C6.70381 13.925 6.87611 14.1471 7.09881 14.362C7.32101 14.5768 7.61591 14.7492 7.98411 14.8796C8.35231 15.01 8.79661 15.0749 9.31811 15.0749C10.2077 15.0749 10.8786 14.9367 11.3308 14.6608C11.783 14.3849 12.0095 14.0094 12.0095 13.5338C12.0095 13.1813 11.8865 12.8976 11.6413 12.6827C11.3962 12.4683 11.0007 12.2725 10.4567 12.0963C9.91271 11.9201 9.18811 11.7399 8.28291 11.5558C7.11791 11.3107 6.12471 10.9923 5.30491 10.6012C4.48411 10.2106 3.85961 9.6969 3.43041 9.0602C3.00071 8.4245 2.78641 7.631 2.78641 6.6798C2.78641 5.7447 3.05101 4.9088 3.57991 4.173C4.10871 3.4367 4.84851 2.862 5.79961 2.4479C6.74981 2.0338 7.87671 1.8268 9.18051 1.8268C10.2381 1.8268 11.1698 1.965 11.9744 2.2409C12.7801 2.5168 13.4588 2.8849 14.0105 3.3449C14.5622 3.8049 14.9802 4.2917 15.2634 4.8053C15.5476 5.3195 15.697 5.8214 15.7126 6.3116C15.7126 6.4346 15.6696 6.546 15.5856 6.6451C15.5016 6.7452 15.3825 6.795 15.2292 6.795H12.1931C12.0242 6.795 11.8786 6.7642 11.7566 6.7027C11.6336 6.6417 11.5261 6.5416 11.4343 6.4039C11.3425 6.0665 11.1003 5.7711 10.7097 5.5182C10.3191 5.2653 9.80931 5.1388 9.18041 5.1388C8.50561 5.1388 7.98021 5.2579 7.60521 5.4952C7.22871 5.733 7.04121 6.0973 7.04121 6.588C7.04121 6.8946 7.14471 7.1627 7.35171 7.3927C7.55821 7.6227 7.90391 7.8224 8.38641 7.9908C8.86981 8.1597 9.53291 8.336 10.3766 8.5196C11.7711 8.7808 12.8981 9.1065 13.7575 9.4971C14.6159 9.8882 15.2487 10.3941 15.655 11.0152C16.0613 11.6363 16.2644 12.4146 16.2644 13.3497C16.2644 14.3927 15.9656 15.2896 15.3669 16.0406C14.7692 16.7921 13.9528 17.3712 12.9177 17.7774C11.8825 18.1832 10.6834 18.387 9.31821 18.387Z" fill="black"/>
<path d="M25.1649 18.387C23.7235 18.387 22.4823 18.1497 21.4393 17.6741C20.3963 17.199 19.5877 16.5012 19.0125 15.5808C18.4373 14.6609 18.1189 13.5188 18.0584 12.154C18.0428 11.5256 18.035 10.8508 18.035 10.1301C18.035 9.4094 18.0428 8.7195 18.0584 8.0598C18.1189 6.7258 18.4412 5.5915 19.0242 4.656C19.6072 3.7209 20.4197 3.0154 21.4627 2.5398C22.5047 2.0647 23.7391 1.8269 25.1648 1.8269C26.1775 1.8269 27.1121 1.9534 27.9714 2.2063C28.8298 2.4597 29.5808 2.8274 30.2253 3.3103C30.8689 3.7937 31.3708 4.3762 31.7321 5.0583C32.0915 5.7409 32.28 6.5114 32.2956 7.3698C32.3102 7.508 32.2683 7.6227 32.1686 7.715C32.069 7.8068 31.9498 7.8527 31.8122 7.8527H28.7067C28.5075 7.8527 28.3542 7.8107 28.2467 7.7262C28.1393 7.6422 28.0475 7.485 27.9713 7.255C27.7565 6.4425 27.4078 5.8863 26.9244 5.5875C26.442 5.2882 25.8473 5.1388 25.1422 5.1388C24.2984 5.1388 23.6315 5.3727 23.1412 5.8405C22.65 6.3083 22.3824 7.0866 22.3365 8.175C22.2896 9.4323 22.2896 10.7204 22.3365 12.0388C22.3824 13.1277 22.65 13.906 23.1412 14.3733C23.6314 14.8416 24.2984 15.075 25.1422 15.075C25.8473 15.075 26.4449 14.9222 26.9361 14.615C27.4263 14.3084 27.772 13.7566 27.9713 12.9588C28.0318 12.7288 28.1207 12.5721 28.2359 12.4876C28.3502 12.4036 28.5074 12.3611 28.7066 12.3611H31.8121C31.9498 12.3611 32.0689 12.407 32.1685 12.4988C32.2681 12.5911 32.3101 12.7058 32.2955 12.844C32.2799 13.7029 32.0914 14.4734 31.732 15.1555C31.3707 15.8381 30.8687 16.4206 30.2252 16.9035C29.5807 17.3864 28.8297 17.7546 27.9713 18.0075C27.1119 18.2604 26.1776 18.387 25.1649 18.387Z" fill="black"/>
<path d="M41.288 18.387C39.8769 18.387 38.6513 18.157 37.6083 17.6971C36.5653 17.2372 35.7528 16.5433 35.1698 15.6156C34.5878 14.6879 34.2655 13.5267 34.204 12.1312C34.1884 11.472 34.1815 10.8084 34.1815 10.1415C34.1815 9.4746 34.1883 8.8114 34.204 8.1522C34.2655 6.7723 34.5917 5.6107 35.1815 4.6678C35.7713 3.7244 36.5926 3.0155 37.6424 2.5399C38.6932 2.0648 39.908 1.827 41.2879 1.827C42.6834 1.827 43.9022 2.0648 44.9451 2.5399C45.9881 3.0155 46.8084 3.7245 47.406 4.6678C48.0037 5.6107 48.3259 6.7723 48.3718 8.1522C48.403 8.8114 48.4177 9.4745 48.4177 10.1415C48.4177 10.8085 48.4031 11.4721 48.3718 12.1312C48.3259 13.5267 48.0075 14.6878 47.4177 15.6156C46.8269 16.5433 46.0105 17.2372 44.9685 17.6971C43.9255 18.1571 42.6992 18.387 41.288 18.387ZM41.288 15.075C42.1005 15.075 42.7636 14.8299 43.2782 14.3392C43.7909 13.8485 44.0634 13.0667 44.0946 11.993C44.1249 11.3187 44.1405 10.682 44.1405 10.0838C44.1405 9.4861 44.1249 8.865 44.0946 8.221C44.0634 7.5003 43.9296 6.9139 43.6913 6.4617C43.454 6.0096 43.1278 5.6761 42.7138 5.4612C42.3007 5.2464 41.8251 5.1389 41.288 5.1389C40.7665 5.1389 40.2997 5.2463 39.8857 5.4612C39.4717 5.6761 39.1416 6.0095 38.8964 6.4617C38.6512 6.9139 38.5126 7.5003 38.4823 8.221C38.4667 8.865 38.4589 9.4861 38.4589 10.0838C38.4589 10.6819 38.4667 11.3187 38.4823 11.993C38.5282 13.0667 38.8075 13.8485 39.3221 14.3392C39.8348 14.8299 40.4911 15.075 41.288 15.075Z" fill="black"/>
<path d="M51.661 18.1571C51.4921 18.1571 51.3544 18.0995 51.2469 17.9847C51.1395 17.8695 51.0858 17.7357 51.0858 17.5819V2.6322C51.0858 2.4637 51.1395 2.3256 51.2469 2.2181C51.3543 2.1112 51.492 2.057 51.661 2.057H58.1014C59.3739 2.057 60.4813 2.2528 61.4246 2.6434C62.367 3.0345 63.1033 3.6209 63.6326 4.4032C64.1609 5.1849 64.4256 6.1742 64.4256 7.37C64.4256 8.5512 64.161 9.5248 63.6326 10.2909C63.1033 11.058 62.367 11.6249 61.4246 11.993C60.4812 12.3612 59.3738 12.5452 58.1014 12.5452H55.3641V17.5818C55.3641 17.7356 55.3065 17.8694 55.1912 17.9846C55.076 18.0993 54.9344 18.157 54.7664 18.157L51.661 18.1571ZM55.2948 9.3709H57.9862C58.6454 9.3709 59.1708 9.2024 59.5614 8.865C59.952 8.5281 60.1483 8.0139 60.1483 7.324C60.1483 6.7415 59.9794 6.2508 59.6424 5.8518C59.3045 5.4534 58.7528 5.2541 57.9862 5.2541H55.2948V9.3709Z" fill="black"/>
<path d="M71.9696 18.1571C71.8007 18.1571 71.6708 18.1073 71.579 18.0077C71.4872 17.9081 71.4413 17.7816 71.4413 17.6283V2.6092C71.4413 2.4407 71.4872 2.3065 71.579 2.2064C71.6708 2.1073 71.8007 2.057 71.9696 2.057H77.8124C78.9462 2.057 79.9315 2.2411 80.7675 2.6092C81.6034 2.9769 82.2509 3.5252 82.7109 4.2537C83.1709 4.9822 83.4013 5.8904 83.4013 6.9788C83.4013 8.0682 83.1708 8.9725 82.7109 9.6932C82.251 10.4139 81.6035 10.9578 80.7675 11.326C79.9315 11.6942 78.9462 11.8782 77.8124 11.8782H73.7411V17.6282C73.7411 17.7815 73.6913 17.908 73.5917 18.0076C73.4911 18.1072 73.3573 18.157 73.1894 18.157L71.9696 18.1571ZM73.7176 9.9461H77.6971C78.8319 9.9461 79.6825 9.6932 80.2498 9.1868C80.8172 8.6809 81.1004 7.9451 81.1004 6.9788C81.1004 6.0286 80.825 5.2923 80.2733 4.7708C79.7206 4.2498 78.8622 3.9891 77.6971 3.9891H73.7176V9.9461Z" fill="black"/>
<path d="M90.6464 18.387C89.4804 18.387 88.5068 18.1643 87.7255 17.72C86.9433 17.2757 86.3456 16.6585 85.9316 15.8684C85.5175 15.0788 85.2871 14.178 85.2412 13.1658C85.2256 12.9055 85.2178 12.572 85.2178 12.1653C85.2178 11.7595 85.2256 11.4334 85.2412 11.1878C85.2871 10.1609 85.5205 9.2562 85.9424 8.4739C86.3643 7.6922 86.9658 7.0789 87.7481 6.6341C88.5304 6.1893 89.4961 5.9671 90.6465 5.9671C91.7959 5.9671 92.7627 6.1893 93.544 6.6341C94.3262 7.0789 94.9278 7.6922 95.3497 8.4739C95.7716 9.2561 96.005 10.1609 96.0509 11.1878C96.0665 11.4334 96.0743 11.7596 96.0743 12.1653C96.0743 12.572 96.0665 12.9055 96.0509 13.1658C96.005 14.178 95.7755 15.0789 95.3614 15.8684C94.9473 16.6584 94.3497 17.2756 93.5675 17.72C92.7853 18.1644 91.8114 18.387 90.6464 18.387ZM90.6464 16.616C91.5966 16.616 92.3554 16.3133 92.9228 15.7073C93.4902 15.1018 93.7968 14.2166 93.8427 13.0511C93.8583 12.8211 93.8661 12.5301 93.8661 12.1771C93.8661 11.8246 93.8583 11.5331 93.8427 11.3031C93.7968 10.1381 93.4902 9.2523 92.9228 8.6464C92.3554 8.0409 91.5966 7.7382 90.6464 7.7382C89.6952 7.7382 88.9325 8.0409 88.3573 8.6464C87.7831 9.2524 87.4794 10.1381 87.4491 11.3031C87.4335 11.5331 87.4257 11.8246 87.4257 12.1771C87.4257 12.5301 87.4335 12.8211 87.4491 13.0511C87.4794 14.2166 87.7831 15.1019 88.3573 15.7073C88.9325 16.3133 89.6952 16.616 90.6464 16.616Z" fill="black"/>
<path d="M99.4774 18.1571C99.3241 18.1571 99.1981 18.1073 99.0985 18.0077C98.9989 17.9081 98.9491 17.7816 98.9491 17.6283V6.7489C98.9491 6.5961 98.9989 6.4657 99.0985 6.3583C99.1981 6.2509 99.3241 6.1972 99.4774 6.1972H100.536C100.689 6.1972 100.819 6.2509 100.927 6.3583C101.034 6.4657 101.088 6.5961 101.088 6.7489V7.7611C101.394 7.2401 101.816 6.849 102.352 6.5882C102.889 6.3275 103.541 6.1971 104.307 6.1971H105.205C105.358 6.1971 105.484 6.2469 105.585 6.3465C105.683 6.4466 105.734 6.5731 105.734 6.7259V7.6693C105.734 7.8226 105.683 7.9452 105.585 8.037C105.484 8.1293 105.358 8.1752 105.205 8.1752H103.825C102.997 8.1752 102.345 8.4164 101.87 8.8998C101.394 9.3827 101.157 10.038 101.157 10.8661V17.6283C101.157 17.7816 101.103 17.9081 100.996 18.0077C100.889 18.1073 100.758 18.1571 100.605 18.1571H99.4774Z" fill="black"/>
<path d="M112.357 18.1571C111.499 18.1571 110.802 17.9925 110.265 17.6625C109.727 17.3329 109.337 16.8656 109.092 16.2597C108.847 15.6542 108.723 14.9369 108.723 14.1093V8.037H106.93C106.776 8.037 106.649 7.9877 106.55 7.8876C106.45 7.788 106.4 7.6615 106.4 7.5082V6.726C106.4 6.5732 106.45 6.4467 106.55 6.3466C106.649 6.247 106.776 6.1972 106.93 6.1972H108.723V2.3564C108.723 2.2031 108.773 2.0766 108.873 1.9765C108.972 1.8769 109.099 1.8271 109.253 1.8271H110.334C110.487 1.8271 110.613 1.8769 110.713 1.9765C110.812 2.0766 110.862 2.2031 110.862 2.3564V6.1972H113.715C113.884 6.1972 114.013 6.247 114.105 6.3466C114.198 6.4467 114.244 6.5732 114.244 6.726V7.5082C114.244 7.6615 114.198 7.788 114.105 7.8876C114.013 7.9877 113.884 8.037 113.715 8.037H110.862V13.9481C110.862 14.6688 110.985 15.2362 111.23 15.6502C111.476 16.0642 111.913 16.2708 112.542 16.2708H113.944C114.097 16.2708 114.224 16.3211 114.324 16.4207C114.424 16.5203 114.473 16.6468 114.473 16.8001V17.6282C114.473 17.7815 114.424 17.908 114.324 18.0076C114.224 18.1072 114.097 18.157 113.944 18.157L112.357 18.1571Z" fill="black"/>
<path d="M120.017 18.387C119.25 18.387 118.552 18.2337 117.924 17.927C117.295 17.6204 116.789 17.2063 116.405 16.6848C116.022 16.1638 115.831 15.5735 115.831 14.9138C115.831 13.8562 116.26 13.0129 117.118 12.384C117.977 11.7556 119.097 11.3415 120.476 11.1418L123.903 10.6589V9.9919C123.903 9.2561 123.692 8.6809 123.271 8.2668C122.85 7.8527 122.163 7.6457 121.213 7.6457C120.538 7.6457 119.985 7.7839 119.557 8.0598C119.127 8.3362 118.828 8.6887 118.659 9.1179C118.567 9.3479 118.406 9.4631 118.177 9.4631H117.142C116.973 9.4631 116.846 9.4133 116.762 9.3137C116.678 9.2141 116.636 9.0949 116.636 8.9568C116.636 8.7268 116.724 8.4436 116.9 8.1062C117.076 7.7688 117.348 7.4392 117.717 7.1169C118.085 6.7951 118.556 6.5227 119.131 6.3005C119.706 6.0783 120.407 5.967 121.235 5.967C122.155 5.967 122.93 6.0857 123.558 6.3234C124.187 6.5611 124.681 6.8796 125.042 7.278C125.402 7.6769 125.663 8.1291 125.824 8.6349C125.985 9.1407 126.065 9.6549 126.065 10.1759V17.628C126.065 17.7813 126.015 17.9078 125.916 18.0074C125.816 18.107 125.689 18.1568 125.536 18.1568H124.478C124.309 18.1568 124.18 18.107 124.088 18.0074C123.995 17.9078 123.949 17.7813 123.949 17.628V16.6387C123.75 16.9146 123.481 17.187 123.144 17.4551C122.807 17.7237 122.386 17.9463 121.88 18.1221C121.374 18.2984 120.753 18.387 120.017 18.387ZM120.5 16.6619C121.128 16.6619 121.703 16.5281 122.225 16.2596C122.746 15.9915 123.156 15.5736 123.455 15.0062C123.754 14.4388 123.903 13.7259 123.903 12.867V12.223L121.235 12.6141C120.146 12.7674 119.326 13.0243 118.774 13.3846C118.223 13.7449 117.946 14.201 117.946 14.7533C117.946 15.1825 118.073 15.5389 118.326 15.8226C118.579 16.1063 118.901 16.3172 119.292 16.4549C119.683 16.5931 120.086 16.6619 120.5 16.6619Z" fill="black"/>
<path d="M129.93 18.1571C129.775 18.1571 129.649 18.1073 129.55 18.0077C129.45 17.9081 129.4 17.7816 129.4 17.6283V2.3563C129.4 2.203 129.45 2.0765 129.55 1.9764C129.649 1.8768 129.775 1.827 129.93 1.827H131.011C131.179 1.827 131.31 1.8768 131.401 1.9764C131.493 2.0765 131.539 2.203 131.539 2.3563V17.6283C131.539 17.7816 131.493 17.9081 131.401 18.0077C131.31 18.1073 131.179 18.1571 131.011 18.1571H129.93Z" fill="black"/>
</svg>
